# xmcd
#
# Track frame offsets: 
#        150
#        25571
#        50781
#        68772
#        88732
#        110801
#        128423
#        146514
#        168965
#        187438
#        203168
#        236417
#        257817
#        269543
#        289708
#        322464
#
# Disc length: 4679 seconds
#
# Revision: 1
# Processed by: cddbd v1.5.2PL0 Copyright (c) Steve Scherf et al.
# Submitted via: ExactAudioCopy v1.0b3
#
DISCID=f9124510
DTITLE=Alejandra Guzman and Gloria Trevi - Versus World Tour
DYEAR=2017
DGENRE=Latin
TTITLE0=Mas Buena
TTITLE1=Hey Güera Vs La Papa Sin Catsup
TTITLE2=Alejandra Guzman - Mala Hierba
TTITLE3=Alejandra Guzman - Mirala, Miralo
TTITLE4=Alejandra Guzman - Loca
TTITLE5=Alejandra Guzman - Quitatelo
TTITLE6=Alejandra Guzman - Un Dia De Suerte
TTITLE7=Alejandra Guzman - Medley (Un Grito En La Noche, Lipstick)
TTITLE8=Gloria Trevi - Gloria
TTITLE9=Gloria Trevi - Vestida De Azucar
TTITLE10=Gloria Trevi - Medley (Me Rio De Ti, Psicofonia, Pruebamelo, 
TTITLE10=En Medio De La Tempestad)
TTITLE11=Gloria Trevi - El Favor De La Soledad
TTITLE12=Gloria Trevi - Cinco Minutos
TTITLE13=Alejandra Guzman - Reina De Corazones
TTITLE14=Alejandra Guzman - Medley (Angeles Caidos, Rosas Rojas, Volve
TTITLE14=rte A Amar)
TTITLE15=Alejandra Guzman - Hacer El Amor Con Otro
EXTD=
EXTT0=
EXTT1=
EXTT2=
EXTT3=
EXTT4=
EXTT5=
EXTT6=
EXTT7=
EXTT8=
EXTT9=
EXTT10=
EXTT11=
EXTT12=
EXTT13=
EXTT14=
EXTT15=
PLAYORDER=
